HIERARCHY
ROOT ui
{
	 OFFSET 0 0 0
	 CHANNELS 3 XPosition YPosition Z Position
	 EndSite
	 {
	 OFFSET 0 -1 0
	 }
}
ROOT li
{
	 OFFSET 0 0 0
	 CHANNELS 3 XPosition YPosition Z Position
	 EndSite
	 {
	 OFFSET 0 -1 0
	 }
}
ROOT ul
{
	 OFFSET 0 0 0
	 CHANNELS 3 XPosition YPosition Z Position
	 EndSite
	 {
	 OFFSET 0 -1 0
	 }
}
ROOT ll
{
	 OFFSET 0 0 0
	 CHANNELS 3 XPosition YPosition Z Position
	 EndSite
	 {
	 OFFSET 0 -1 0
	 }
}
ROOT tt
{
	 OFFSET 0 0 0
	 CHANNELS 3 XPosition YPosition Z Position
	 EndSite
	 {
	 OFFSET 0 -1 0
	 }
}
ROOT tb
{
	 OFFSET 0 0 0
	 CHANNELS 3 XPosition YPosition Z Position
	 EndSite
	 {
	 OFFSET 0 -1 0
	 }
}
ROOT td
{
	 OFFSET 0 0 0
	 CHANNELS 3 XPosition YPosition Z Position
	 EndSite
	 {
	 OFFSET 0 -1 0
	 }
}
ROOT v
{
	 OFFSET 0 0 0
	 CHANNELS 3 XPosition YPosition Z Position
	 EndSite
	 {
	 OFFSET 0 -1 0
	 }
}
ROOT bn
{
	 OFFSET 0 0 0
	 CHANNELS 3 XPosition YPosition Z Position
	 EndSite
	 {
	 OFFSET 0 -1 0
	 }
}
MOTION
Frames: 27
Frame Time: 0.002
6.032119989395142E-4	4.8430898785591125E-4	0		0.5475857543945313	-2.5563251953125	0		-1.0480045166015626	0.1665286865234375	0		-0.629068603515625	-2.7431904296875	0		1.2003526611328126	-0.8458880615234375	0		3.09039404296875	-0.5011659851074218	0		4.55844287109375	-0.26981085205078126	0		5.62041455078125	0.10519410705566407	0		-0.2503682708740234	5.92186767578125	0		
0.0068643708229064945	0.006693871021270752	0		0.602622314453125	-2.5605693359375	0		-1.0397259521484374	0.17377664184570313	0		-0.6599346313476563	-2.73462646484375	0		1.1605792236328125	-0.8383434448242187	0		3.076794189453125	-0.47594805908203125	0		4.571671875	-0.2659043884277344	0		5.62405322265625	0.08603423309326172	0		-0.23576638793945312	5.93102099609375	0		
0.010108266830444336	0.00894361972808838	0		0.551795654296875	-2.5508798828125	0		-0.9974661254882813	0.17674061584472656	0		-0.5868972778320313	-2.739952392578125	0		1.206768798828125	-0.8375288696289063	0		3.07984716796875	-0.49285748291015624	0		4.56392822265625	-0.2607965698242187	0		5.61926953125	0.10168901824951172	0		-0.23623992919921874	5.930318359375	0		
0.005324960231781006	0.005285453796386719	0		0.60081982421875	-2.562038818359375	0		-1.002249755859375	0.17213327026367187	0		-0.6237652587890625	-2.7372998046875	0		1.155927001953125	-0.8428436279296875	0		3.1022216796875	-0.47590811157226565	0		4.55606103515625	-0.2726576232910156	0		5.621630859375	0.11551727294921875	0		-0.23669859313964844	5.92963720703125	0		
0.004598770141601562	0.0046201181411743165	0		0.5979520874023437	-2.564715087890625	0		-0.9360499267578125	0.16192578125	0		-0.5906692504882812	-2.743234619140625	0		1.1991405029296875	-0.8459526977539062	0		3.06933251953125	-0.49244000244140623	0		4.55532177734375	-0.27354266357421875	0		5.61469287109375	0.11577235412597656	0		-0.2522264404296875	5.9191162109375	0		
-0.0031533529758453367	-0.002950644016265869	0		0.5971441650390625	-2.56537548828125	0		-1.01272119140625	0.1630097198486328	0		-0.6614116821289062	-2.735219970703125	0		1.1984112548828125	-0.8466404418945312	0		3.063681640625	-0.4861693115234375	0		4.55461865234375	-0.2743840637207031	0		5.61419287109375	0.11424049377441406	0		-0.2375579376220703	5.928361328125	0		
0.007284525871276855	0.006353880882263184	0		0.5464744262695312	-2.555552978515625	0		-1.0432923583984375	0.17072306823730468	0		-0.6122442016601563	-2.743234130859375	0		1.2007508544921874	-0.8443159790039062	0		3.090839599609375	-0.5061468505859374	0		4.55686669921875	-0.2852032165527344	0		5.6172119140625	0.09196117401123047	0		-0.23597189331054688	5.9257568359375	0		
0.010712838172912598	0.009759077072143555	0		0.6027537231445312	-2.5576435546875	0		-1.0008590698242188	0.17382102966308594	0		-0.6558251342773438	-2.728384033203125	0		1.2061719970703124	-0.8379763793945313	0		3.084462646484375	-0.4787760314941406	0		4.560435546875	-0.2649800720214844	0		5.6238974609375	0.08872927856445313	0		-0.23733424377441406	5.926216796875	0		
0.006114811897277832	0.0052766199111938476	0		0.5970347900390625	-2.565138671875	0		-1.0145225830078124	0.16145681762695313	0		-0.5865623779296875	-2.737507080078125	0		1.1964892578125	-0.8484573974609375	0		3.0607216796875	-0.49719967651367186	0		4.5527646484375	-0.27660183715820313	0		5.6163779296875	0.09282781219482422	0		-0.25376910400390623	5.9158515625	0		
-0.0014653400182724	-0.0021377949714660644	0		0.5674332885742187	-2.56537451171875	0		-1.0150347290039063	0.16101286315917968	0		-0.6241602172851562	-2.73663134765625	0		1.195943603515625	-0.8489747924804687	0		3.091177490234375	-0.49905862426757813	0		4.54918408203125	-0.2832033996582031	0		5.6131044921875	0.07963722229003906	0		-0.254090087890625	5.91538232421875	0		
0.0010971970558166504	0.0013968839645385742	0		0.5938645629882813	-2.56807373046875	0		-1.01550341796875	0.16060491943359376	0		-0.62269677734375	-2.735069091796875	0		1.15146484375	-0.8470501098632812	0		3.08063525390625	-0.50549755859375	0		4.5417568359375	-0.27771319580078124	0		5.619875	0.07325013732910156	0		-0.25438819885253905	5.91495166015625	0		
6.660860180854797E-4	9.970939755439758E-4	0		0.5414327392578125	-2.56101708984375	0		-1.0508927001953126	0.16454891967773438	0		-0.6581517944335937	-2.73013525390625	0		1.1949918212890625	-0.8498789672851562	0		3.0793818359375	-0.48496868896484374	0		4.551318359375	-0.278321044921875	0		5.61956298828125	0.07231162261962891	0		-0.23956732177734374	5.925421875	0		
0.004302564144134521	0.0035975708961486818	0		0.596956787109375	-2.564901123046875	0		-1.0122813720703125	0.1638539276123047	0		-0.6185943603515625	-2.729847900390625	0		1.1836922607421876	-0.8381683349609375	0		3.08282568359375	-0.502434326171875	0		4.55497607421875	-0.27281967163085935	0		5.61506591796875	0.0888695297241211	0		-0.20477598571777345	5.9307451171875	0		
-7.699599862098693E-5	3.05976003408432E-4	0		0.5675697631835938	-2.563975341796875	0		-1.016667236328125	0.15958016967773436	0		-0.6210127563476563	-2.73214697265625	0		1.1921881103515626	-0.8535985717773438	0		3.10259130859375	-0.48899932861328127	0		4.55056396484375	-0.2791907958984375	0		5.6148125	0.08813477325439453	0		-0.20502461242675782	5.9304208984375	0		
-3.9388999342918394E-4	1.04160001501441E-5	0		0.592171875	-2.569506591796875	0		-0.9409943237304688	0.15760438537597657	0		-0.6213661499023437	-2.73243408203125	0		1.1799698486328125	-0.841801025390625	0		3.076214111328125	-0.4950987243652344	0		4.55024365234375	-0.27954718017578123	0		5.61749609375	0.10300206756591797	0		-0.25540625	5.9145849609375	0		
-0.0037145590782165527	-0.004227543830871582	0		0.5648825073242187	-2.56753125	0		-1.0172647094726563	0.1590423583984375	0		-0.6236947021484375	-2.734675537109375	0		1.1856224365234376	-0.8481324462890625	0		3.07800732421875	-0.4864123229980469	0		4.5448837890625	-0.28781015014648437	0		5.61859375	0.06955116271972656	0		-0.240543212890625	5.9241845703125	0		
-9.323679804801941E-4	-4.930010139942169E-4	0		0.5936112060546875	-2.568037841796875	0		-1.0066099243164062	0.14871058654785158	0		-0.6409376831054687	-2.731754150390625	0		1.1493553466796875	-0.84904833984375	0		3.09057568359375	-0.5057872924804687	0		4.5476826171875	-0.28210379028320315	0		5.621310546875	0.08112681579589844	0		-0.23877925109863282	5.9219296875	0		
0.006904759883880615	0.006221302032470703	0		0.5434699096679687	-2.557794921875	0		-0.9326835327148437	0.1648239288330078	0		-0.603183837890625	-2.733311767578125	0		1.1931058349609376	-0.851666748046875	0		3.08360400390625	-0.4779466552734375	0		4.5425283203125	-0.2742853393554687	0		5.61693408203125	0.09812290191650391	0		-0.2399774169921875	5.9227275390625	0		
-0.0013602809906005859	-8.938519954681396E-4	0		0.5931729736328125	-2.56844091796875	0		-1.0179452514648437	0.1584140167236328	0		-0.6523029174804688	-2.724052001953125	0		1.17898681640625	-0.8427286376953125	0		3.060238525390625	-0.495926513671875	0		4.549271484375	-0.2805413513183594	0		5.61810546875	0.06834866333007812	0		-0.2562649536132813	5.91268603515625	0		
0.0024879970550537108	0.0019018330574035644	0		0.5660256958007812	-2.565361083984375	0		-0.9421367797851562	0.15654994201660155	0		-0.58052734375	-2.72987890625	0		1.187662109375	-0.8589764404296875	0		3.0750595703125	-0.49622756958007813	0		4.5490927734375	-0.28070333862304686	0		5.61797802734375	0.06807048797607422	0		-0.2715512390136719	5.90165576171875	0		
-0.008762886047363281	-0.008146525382995606	0		0.5908264770507813	-2.570737060546875	0		-1.0233211669921876	0.1541387176513672	0		-0.6417041625976563	-2.732471923828125	0		1.1905411376953126	-0.8551499633789063	0		3.0958271484375	-0.5045597534179688	0		4.55081494140625	-0.2938572998046875	0		5.6178642578125	0.06783974456787109	0		-0.24152825927734375	5.92323046875	0		
-0.001842818021774292	-0.0013445290327072144	0		0.5387601318359375	-2.563393310546875	0		-1.0184291381835937	0.15795472717285156	0		-0.6018285522460938	-2.73197412109375	0		1.1924285888671875	-0.852296875	0		3.0589521484375	-0.475343017578125	0		4.5418466796875	-0.2748897705078125	0		5.62066162109375	0.07969611358642578	0		-0.24169760131835938	5.923095703125	0		
0.0020548648834228514	0.001499006986618042	0		0.5676437377929687	-2.56377490234375	0		-1.0185595703125	0.1578292236328125	0		-0.6358956909179687	-2.726786865234375	0		1.1873587646484376	-0.8463645629882812	0		3.0805595703125	-0.5046454162597657	0		4.54866357421875	-0.2810477600097656	0		5.6248037109375	0.06733818817138672	0		-0.24086956787109376	5.92196533203125	0		
-0.0020893659591674804	-0.0015714839696884155	0		0.5924971923828125	-2.569106201171875	0		-0.9477171020507813	0.15306730651855469	0		-0.6000233154296875	-2.730226806640625	0		1.178275146484375	-0.8433817138671875	0		3.08268310546875	-0.4787513122558594	0		4.5434755859375	-0.2890785217285156	0		5.60987353515625	0.10214704895019532	0		-0.22207261657714844	5.91668310546875	0		
-0.0021951050758361817	-0.0016670639514923095	0		0.5903925170898437	-2.571178955078125	0		-1.0238208618164062	0.15365785217285155	0		-0.64700634765625	-2.718898681640625	0		1.175139404296875	-0.8474409790039062	0		3.069481201171875	-0.48970474243164064	0		4.54539013671875	-0.28715838623046874	0		5.61752783203125	0.07074085235595703	0		-0.2572577209472656	5.9129052734375	0		
-0.002290631055831909	-0.0017519220113754272	0		0.5903173828125	-2.57125927734375	0		-1.0239176025390626	0.15356488037109375	0		-0.6001824951171875	-2.73041650390625	0		1.18099560546875	-0.8535708618164063	0		3.06445361328125	-0.48271990966796874	0		4.5463330078125	-0.28321636962890623	0		5.61322119140625	0.08114415740966797	0		-0.25641851806640625	5.9108095703125	0		
0.0016505850553512574	0.0011368659734725952	0		0.5383180541992187	-2.56385595703125	0		-1.0579669189453125	0.15779139709472656	0		-0.6311632080078124	-2.721214111328125	0		1.18989794921875	-0.8557178955078125	0		3.09921533203125	-0.500087890625	0		4.55117626953125	-0.2912996520996094	0		5.620287109375	0.0792043228149414	0		-0.2404616241455078	5.9205869140625	0		
